; NON-PLATED HOLES START AT T1
; THROUGH (PLATED) HOLES START AT T100
M48
INCH
T1C0.086614
T100C0.038000
T101C0.035433
T102C0.039370
T103C0.040000
T104C0.035000
T105C0.042000
T106C0.030000
T107C0.031497
%
T1
X003152Y015413
X003152Y001413
T100
X024152Y021413
X030152Y004413
X023152Y021413
X022152Y032413
X021152Y021413
X029152Y002413
X027152Y023413
X020152Y021413
X032152Y002413
X028152Y002413
X031152Y002413
X026152Y002413
X029152Y021413
X025152Y002413
X028152Y021413
X024152Y013413
X026152Y021413
X029152Y004413
X023152Y013413
X025152Y021413
X028152Y004413
X022152Y021413
X021152Y032413
X026152Y023413
X020152Y032413
X027152Y002413
X025152Y023413
X030152Y002413
X025152Y013413
X024152Y002413
X027152Y021413
X023152Y002413
T101
X010152Y023413
X013852Y023413
T102
X015152Y023413
X013152Y034413
X012152Y023413
X014152Y021413
X010152Y027413
X013152Y021413
X012152Y032413
X009152Y025413
X011152Y021413
X003152Y024413
X016152Y021413
X004152Y026413
X014152Y032413
X005152Y024413
X011152Y025413
T103
X025152Y011413
X025152Y030413
X034152Y011413
X032152Y026913
X035152Y008913
X002152Y031413
X028152Y011413
X032121Y033413
X028152Y030413
X022152Y024413
X031152Y005413
X032152Y025913
X035152Y007913
X031152Y024413
X035152Y010913
X020152Y030413
X035121Y014413
X025152Y005413
X032152Y024913
X035152Y006913
X025152Y024413
X034152Y005413
X023152Y011413
X023152Y030413
X032152Y011413
X035152Y005913
X028152Y005413
X030152Y033413
X028152Y024413
X026152Y011413
X026152Y030413
X020152Y024413
X033152Y014413
X029152Y011413
X023152Y005413
X029152Y030413
X023152Y024413
X032152Y005413
X021152Y030413
X030152Y011413
X030152Y030413
X026152Y005413
X026152Y024413
X026702Y025563
X024152Y011413
X024152Y030413
X033152Y011413
X029152Y005413
X029152Y024413
X029702Y006563
X027152Y011413
X027152Y030413
X021152Y024413
X030152Y005413
X030152Y024413
X030702Y006563
X032152Y029913
X024152Y005413
X024152Y024413
X033152Y005413
X032152Y028913
X022152Y030413
X031152Y011413
X031152Y030413
X027152Y005413
X027152Y024413
X032152Y027913
X035152Y009913
X002152Y033381
X027702Y025563
T104
X018152Y004413
X013152Y006413
X016152Y026413
X006152Y021413
X014152Y029413
X005152Y032413
X009152Y022413
X013152Y024413
X005152Y028413
X006152Y036413
X014152Y009413
X006152Y020413
X026152Y033413
X008059Y020382
X011152Y030413
X009152Y021413
X017152Y029413
X020152Y011413
X017152Y013413
X026152Y032413
X017152Y009413
X029152Y014413
X009152Y020413
X007152Y023413
X011152Y006413
X015152Y015413
X003152Y029413
X005152Y010413
X014152Y026413
X029152Y013413
X014152Y010413
X017152Y011413
X019200Y004463
X006152Y033413
X008152Y007413
X014152Y006413
X010152Y035413
X003152Y028413
X012152Y009413
X017152Y026413
X015152Y029413
X005152Y005413
X006152Y032413
X009152Y033413
X020152Y023413
X013152Y035413
X003152Y011413
X015152Y009413
X016276Y023413
X012152Y030413
X006152Y031413
X016152Y020413
X014152Y004413
X004152Y034413
X009152Y032413
X017152Y005413
X023152Y004413
X006152Y027413
X012152Y026413
X017152Y024413
X021152Y007413
X010152Y029413
X011152Y002413
X006152Y030413
X015152Y011413
X008152Y004413
X010152Y032413
X009152Y031413
X012152Y006413
X007182Y020443
X002152Y036413
X006152Y026413
X016152Y015413
X009152Y027413
X015152Y026413
X005152Y002413
X009152Y030413
X013152Y013413
X006152Y006413
X009152Y007413
X015152Y006413
X009152Y026413
X013152Y009413
X018152Y007413
X009152Y010413
X016152Y029413
X011152Y034413
X010152Y010413
X004152Y030413
X013152Y030413
X006152Y023413
X010152Y006413
X013152Y026413
X007152Y011413
X006152Y022413
X016152Y011413
X009152Y004413
X009152Y023413
T105
X026152Y009413
X029132Y009413
X023152Y028413
X026132Y028413
T106
X006152Y002413
X007152Y002413
X024152Y032413
X008152Y002413
X012154Y020413
X003152Y020413
X011152Y020413
X024152Y033414
X004154Y020413
X006152Y024413
X009152Y028413
X027152Y013413
X006152Y025414
X009152Y029414
X027152Y014414
T107
X003152Y009412
X006152Y008428
X003152Y008428
X006152Y009412
T00
M30
