G04 MADE WITH FRITZING*
G04 WWW.FRITZING.ORG*
G04 DOUBLE SIDED*
G04 HOLES PLATED*
G04 CONTOUR ON CENTER OF CONTOUR VECTOR*
%ASAXBY*%
%FSLAX23Y23*%
%MOIN*%
%OFA0B0*%
%SFA1.0B1.0*%
%ADD10C,0.084000*%
%ADD11C,0.085000*%
%ADD12C,0.088000*%
%ADD13C,0.090000*%
%ADD14C,0.092000*%
%ADD15C,0.080000*%
%ADD16C,0.072992*%
%ADD17C,0.096614*%
%ADD18R,0.090000X0.090000*%
%ADD19R,0.092000X0.092000*%
%ADD20R,0.085000X0.085000*%
%ADD21R,0.072992X0.072992*%
%ADD22R,0.001000X0.001000*%
%LNMASK0*%
G90*
G70*
G54D10*
X3215Y2491D03*
X3215Y2591D03*
X3215Y2691D03*
X3215Y2791D03*
X3215Y2891D03*
X3215Y2991D03*
X3115Y2441D03*
X3015Y2441D03*
X2915Y2441D03*
X2815Y2441D03*
X2715Y2441D03*
X2770Y2556D03*
X2670Y2556D03*
X2615Y2441D03*
X2515Y2441D03*
X2415Y2441D03*
X2315Y2441D03*
X2215Y2441D03*
X2115Y2441D03*
X2015Y2441D03*
X2015Y3041D03*
X2115Y3041D03*
X2215Y3041D03*
X2315Y3041D03*
X2415Y3041D03*
X2515Y3041D03*
X2615Y3041D03*
X2715Y3041D03*
X2815Y3041D03*
X2915Y3041D03*
X3015Y3041D03*
X3115Y3041D03*
G54D11*
X1815Y741D03*
X2115Y741D03*
G54D12*
X2015Y2141D03*
X2115Y2141D03*
X2215Y2141D03*
X2315Y2141D03*
X2415Y2141D03*
X2515Y2141D03*
X2615Y2141D03*
X2715Y2141D03*
X2815Y2141D03*
X2915Y2141D03*
X2015Y3241D03*
X2115Y3241D03*
X2215Y3241D03*
G54D13*
X215Y3141D03*
X215Y3338D03*
X3015Y3341D03*
X3212Y3341D03*
G54D10*
X3515Y591D03*
X3515Y691D03*
X3515Y791D03*
X3515Y891D03*
X3515Y991D03*
X3515Y1091D03*
X3415Y541D03*
X3315Y541D03*
X3215Y541D03*
X3115Y541D03*
X3015Y541D03*
X3070Y656D03*
X2970Y656D03*
X2915Y541D03*
X2815Y541D03*
X2715Y541D03*
X2615Y541D03*
X2515Y541D03*
X2415Y541D03*
X2315Y541D03*
X2315Y1141D03*
X2415Y1141D03*
X2515Y1141D03*
X2615Y1141D03*
X2715Y1141D03*
X2815Y1141D03*
X2915Y1141D03*
X3015Y1141D03*
X3115Y1141D03*
X3215Y1141D03*
X3315Y1141D03*
X3415Y1141D03*
G54D14*
X2613Y2841D03*
X2315Y2841D03*
G54D12*
X2315Y241D03*
X2415Y241D03*
X2515Y241D03*
X2615Y241D03*
X2715Y241D03*
X2815Y241D03*
X2915Y241D03*
X3015Y241D03*
X3115Y241D03*
X3215Y241D03*
X2315Y1341D03*
X2415Y1341D03*
X2515Y1341D03*
G54D11*
X2615Y3241D03*
X2615Y3341D03*
G54D13*
X3315Y1441D03*
X3512Y1441D03*
G54D15*
X2415Y3241D03*
X2415Y3341D03*
G54D11*
X1415Y2641D03*
X1415Y2941D03*
X1515Y2641D03*
X1515Y2941D03*
X1615Y2641D03*
X1615Y2941D03*
X1715Y2641D03*
X1715Y2941D03*
X615Y3341D03*
X915Y3341D03*
X615Y3241D03*
X915Y3241D03*
X615Y3141D03*
X915Y3141D03*
X615Y3041D03*
X915Y3041D03*
X615Y2341D03*
X915Y2341D03*
X615Y2241D03*
X915Y2241D03*
X615Y2141D03*
X915Y2141D03*
X615Y2041D03*
X915Y2041D03*
X1628Y2341D03*
X2015Y2341D03*
G54D14*
X2913Y941D03*
X2615Y941D03*
G54D12*
X2515Y2341D03*
X2615Y2341D03*
X2715Y2341D03*
G54D11*
X1715Y2441D03*
X1315Y2441D03*
X1315Y2641D03*
X1315Y3041D03*
X2915Y1341D03*
X2915Y1441D03*
G54D10*
X1415Y2141D03*
X1515Y2341D03*
X1615Y2141D03*
X1115Y2141D03*
X1215Y2341D03*
X1315Y2141D03*
X315Y2441D03*
X415Y2641D03*
X515Y2441D03*
X915Y2541D03*
X1015Y2741D03*
X1115Y2541D03*
X1215Y3241D03*
X1315Y3441D03*
X1415Y3241D03*
G54D11*
X1215Y2641D03*
X1215Y3041D03*
G54D15*
X2715Y1341D03*
X2715Y1441D03*
G54D11*
X1115Y3041D03*
X1115Y3441D03*
X1215Y641D03*
X1215Y941D03*
X1315Y641D03*
X1315Y941D03*
X1415Y641D03*
X1415Y941D03*
X1515Y641D03*
X1515Y941D03*
X215Y3641D03*
X615Y3641D03*
X315Y2841D03*
X315Y2941D03*
X515Y2841D03*
X515Y3241D03*
G54D16*
X615Y843D03*
X615Y941D03*
G54D11*
X415Y3041D03*
X415Y3441D03*
X1920Y446D03*
X2315Y441D03*
G54D12*
X2815Y441D03*
X2915Y441D03*
X3015Y441D03*
G54D11*
X615Y2641D03*
X915Y2641D03*
X1015Y2941D03*
X1015Y3241D03*
X1015Y3541D03*
X1315Y3541D03*
G54D15*
X915Y2841D03*
X915Y2941D03*
X615Y2441D03*
X615Y2541D03*
G54D16*
X315Y843D03*
X315Y941D03*
G54D11*
X515Y1041D03*
X915Y1041D03*
X315Y1141D03*
X715Y1141D03*
X615Y2741D03*
X915Y2741D03*
G54D15*
X315Y2041D03*
X415Y2041D03*
G54D11*
X815Y441D03*
X915Y441D03*
X1415Y441D03*
X1815Y441D03*
G54D15*
X1115Y2041D03*
X1215Y2041D03*
G54D11*
X718Y2044D03*
X715Y2341D03*
X1115Y641D03*
X1115Y241D03*
X615Y641D03*
X1015Y641D03*
X815Y741D03*
X915Y741D03*
X806Y2038D03*
X1615Y2041D03*
X515Y241D03*
X515Y541D03*
X1515Y1141D03*
X1615Y1141D03*
X1715Y941D03*
X1715Y541D03*
X1715Y1141D03*
X2015Y1141D03*
X1015Y1041D03*
X1415Y1041D03*
X1315Y1341D03*
X1715Y1341D03*
X1515Y1541D03*
X1615Y1541D03*
G54D17*
X315Y1541D03*
X315Y141D03*
G54D11*
X1015Y2341D03*
X1385Y2341D03*
G54D18*
X215Y3141D03*
X3015Y3341D03*
G54D19*
X2614Y2841D03*
G54D20*
X2615Y3241D03*
G54D18*
X3315Y1441D03*
G54D20*
X1415Y2641D03*
X615Y3341D03*
X615Y2341D03*
G54D19*
X2914Y941D03*
G54D20*
X2915Y1341D03*
X1215Y641D03*
X315Y2841D03*
G54D21*
X615Y843D03*
X315Y843D03*
G54D20*
X815Y441D03*
X815Y741D03*
X1515Y1141D03*
X1515Y1541D03*
G54D22*
X608Y281D02*
X621Y281D01*
X708Y281D02*
X721Y281D01*
X808Y281D02*
X821Y281D01*
X605Y280D02*
X625Y280D01*
X705Y280D02*
X725Y280D01*
X805Y280D02*
X825Y280D01*
X602Y279D02*
X627Y279D01*
X702Y279D02*
X727Y279D01*
X802Y279D02*
X827Y279D01*
X600Y278D02*
X630Y278D01*
X700Y278D02*
X730Y278D01*
X800Y278D02*
X830Y278D01*
X598Y277D02*
X632Y277D01*
X698Y277D02*
X732Y277D01*
X798Y277D02*
X832Y277D01*
X596Y276D02*
X633Y276D01*
X696Y276D02*
X733Y276D01*
X796Y276D02*
X833Y276D01*
X595Y275D02*
X635Y275D01*
X695Y275D02*
X735Y275D01*
X795Y275D02*
X835Y275D01*
X593Y274D02*
X636Y274D01*
X693Y274D02*
X736Y274D01*
X793Y274D02*
X836Y274D01*
X592Y273D02*
X638Y273D01*
X692Y273D02*
X738Y273D01*
X792Y273D02*
X838Y273D01*
X591Y272D02*
X639Y272D01*
X691Y272D02*
X739Y272D01*
X791Y272D02*
X839Y272D01*
X590Y271D02*
X640Y271D01*
X690Y271D02*
X740Y271D01*
X790Y271D02*
X840Y271D01*
X588Y270D02*
X641Y270D01*
X688Y270D02*
X741Y270D01*
X788Y270D02*
X841Y270D01*
X587Y269D02*
X642Y269D01*
X687Y269D02*
X742Y269D01*
X787Y269D02*
X842Y269D01*
X587Y268D02*
X643Y268D01*
X687Y268D02*
X743Y268D01*
X787Y268D02*
X843Y268D01*
X586Y267D02*
X644Y267D01*
X686Y267D02*
X744Y267D01*
X786Y267D02*
X844Y267D01*
X585Y266D02*
X645Y266D01*
X685Y266D02*
X745Y266D01*
X785Y266D02*
X845Y266D01*
X584Y265D02*
X646Y265D01*
X684Y265D02*
X746Y265D01*
X784Y265D02*
X846Y265D01*
X583Y264D02*
X646Y264D01*
X683Y264D02*
X746Y264D01*
X783Y264D02*
X846Y264D01*
X582Y263D02*
X647Y263D01*
X682Y263D02*
X747Y263D01*
X782Y263D02*
X847Y263D01*
X582Y262D02*
X648Y262D01*
X682Y262D02*
X748Y262D01*
X782Y262D02*
X848Y262D01*
X581Y261D02*
X648Y261D01*
X681Y261D02*
X748Y261D01*
X781Y261D02*
X848Y261D01*
X581Y260D02*
X649Y260D01*
X681Y260D02*
X749Y260D01*
X781Y260D02*
X849Y260D01*
X580Y259D02*
X650Y259D01*
X680Y259D02*
X750Y259D01*
X780Y259D02*
X850Y259D01*
X579Y258D02*
X650Y258D01*
X679Y258D02*
X750Y258D01*
X779Y258D02*
X850Y258D01*
X579Y257D02*
X651Y257D01*
X679Y257D02*
X751Y257D01*
X779Y257D02*
X851Y257D01*
X578Y256D02*
X651Y256D01*
X678Y256D02*
X751Y256D01*
X778Y256D02*
X851Y256D01*
X578Y255D02*
X651Y255D01*
X678Y255D02*
X751Y255D01*
X778Y255D02*
X851Y255D01*
X578Y254D02*
X652Y254D01*
X678Y254D02*
X752Y254D01*
X778Y254D02*
X852Y254D01*
X577Y253D02*
X652Y253D01*
X677Y253D02*
X752Y253D01*
X777Y253D02*
X852Y253D01*
X577Y252D02*
X653Y252D01*
X677Y252D02*
X753Y252D01*
X777Y252D02*
X853Y252D01*
X577Y251D02*
X653Y251D01*
X677Y251D02*
X753Y251D01*
X777Y251D02*
X853Y251D01*
X576Y250D02*
X653Y250D01*
X676Y250D02*
X753Y250D01*
X776Y250D02*
X853Y250D01*
X576Y249D02*
X653Y249D01*
X676Y249D02*
X753Y249D01*
X776Y249D02*
X853Y249D01*
X576Y248D02*
X654Y248D01*
X676Y248D02*
X754Y248D01*
X776Y248D02*
X854Y248D01*
X576Y247D02*
X654Y247D01*
X676Y247D02*
X754Y247D01*
X776Y247D02*
X854Y247D01*
X576Y246D02*
X654Y246D01*
X676Y246D02*
X754Y246D01*
X776Y246D02*
X854Y246D01*
X575Y245D02*
X654Y245D01*
X675Y245D02*
X754Y245D01*
X775Y245D02*
X854Y245D01*
X575Y244D02*
X654Y244D01*
X675Y244D02*
X754Y244D01*
X775Y244D02*
X854Y244D01*
X575Y243D02*
X654Y243D01*
X675Y243D02*
X754Y243D01*
X775Y243D02*
X854Y243D01*
X575Y242D02*
X654Y242D01*
X675Y242D02*
X754Y242D01*
X775Y242D02*
X854Y242D01*
X575Y241D02*
X654Y241D01*
X675Y241D02*
X754Y241D01*
X775Y241D02*
X854Y241D01*
X575Y240D02*
X654Y240D01*
X675Y240D02*
X754Y240D01*
X775Y240D02*
X854Y240D01*
X575Y239D02*
X654Y239D01*
X675Y239D02*
X754Y239D01*
X775Y239D02*
X854Y239D01*
X576Y238D02*
X654Y238D01*
X676Y238D02*
X754Y238D01*
X776Y238D02*
X854Y238D01*
X576Y237D02*
X654Y237D01*
X676Y237D02*
X754Y237D01*
X776Y237D02*
X854Y237D01*
X576Y236D02*
X654Y236D01*
X676Y236D02*
X754Y236D01*
X776Y236D02*
X854Y236D01*
X576Y235D02*
X653Y235D01*
X676Y235D02*
X753Y235D01*
X776Y235D02*
X853Y235D01*
X576Y234D02*
X653Y234D01*
X676Y234D02*
X753Y234D01*
X776Y234D02*
X853Y234D01*
X577Y233D02*
X653Y233D01*
X677Y233D02*
X753Y233D01*
X777Y233D02*
X853Y233D01*
X577Y232D02*
X653Y232D01*
X677Y232D02*
X753Y232D01*
X777Y232D02*
X853Y232D01*
X577Y231D02*
X652Y231D01*
X677Y231D02*
X752Y231D01*
X777Y231D02*
X852Y231D01*
X578Y230D02*
X652Y230D01*
X678Y230D02*
X752Y230D01*
X778Y230D02*
X852Y230D01*
X578Y229D02*
X652Y229D01*
X678Y229D02*
X752Y229D01*
X778Y229D02*
X852Y229D01*
X578Y228D02*
X651Y228D01*
X678Y228D02*
X751Y228D01*
X778Y228D02*
X851Y228D01*
X579Y227D02*
X651Y227D01*
X679Y227D02*
X751Y227D01*
X779Y227D02*
X851Y227D01*
X579Y226D02*
X650Y226D01*
X679Y226D02*
X750Y226D01*
X779Y226D02*
X850Y226D01*
X580Y225D02*
X650Y225D01*
X680Y225D02*
X750Y225D01*
X780Y225D02*
X850Y225D01*
X580Y224D02*
X649Y224D01*
X680Y224D02*
X749Y224D01*
X780Y224D02*
X849Y224D01*
X581Y223D02*
X649Y223D01*
X681Y223D02*
X749Y223D01*
X781Y223D02*
X849Y223D01*
X582Y222D02*
X648Y222D01*
X682Y222D02*
X748Y222D01*
X782Y222D02*
X848Y222D01*
X582Y221D02*
X647Y221D01*
X682Y221D02*
X747Y221D01*
X782Y221D02*
X847Y221D01*
X583Y220D02*
X647Y220D01*
X683Y220D02*
X747Y220D01*
X783Y220D02*
X847Y220D01*
X584Y219D02*
X646Y219D01*
X684Y219D02*
X746Y219D01*
X784Y219D02*
X846Y219D01*
X584Y218D02*
X645Y218D01*
X684Y218D02*
X745Y218D01*
X784Y218D02*
X845Y218D01*
X585Y217D02*
X644Y217D01*
X685Y217D02*
X744Y217D01*
X785Y217D02*
X844Y217D01*
X586Y216D02*
X643Y216D01*
X686Y216D02*
X743Y216D01*
X786Y216D02*
X843Y216D01*
X587Y215D02*
X642Y215D01*
X687Y215D02*
X742Y215D01*
X787Y215D02*
X842Y215D01*
X588Y214D02*
X641Y214D01*
X688Y214D02*
X741Y214D01*
X788Y214D02*
X841Y214D01*
X589Y213D02*
X640Y213D01*
X689Y213D02*
X740Y213D01*
X789Y213D02*
X840Y213D01*
X590Y212D02*
X639Y212D01*
X690Y212D02*
X739Y212D01*
X790Y212D02*
X839Y212D01*
X591Y211D02*
X638Y211D01*
X691Y211D02*
X738Y211D01*
X791Y211D02*
X838Y211D01*
X593Y210D02*
X637Y210D01*
X693Y210D02*
X737Y210D01*
X793Y210D02*
X837Y210D01*
X594Y209D02*
X635Y209D01*
X694Y209D02*
X735Y209D01*
X794Y209D02*
X835Y209D01*
X596Y208D02*
X634Y208D01*
X696Y208D02*
X734Y208D01*
X796Y208D02*
X834Y208D01*
X597Y207D02*
X632Y207D01*
X697Y207D02*
X732Y207D01*
X797Y207D02*
X832Y207D01*
X599Y206D02*
X630Y206D01*
X699Y206D02*
X730Y206D01*
X799Y206D02*
X830Y206D01*
X601Y205D02*
X628Y205D01*
X701Y205D02*
X728Y205D01*
X801Y205D02*
X828Y205D01*
X604Y204D02*
X626Y204D01*
X704Y204D02*
X726Y204D01*
X804Y204D02*
X826Y204D01*
X607Y203D02*
X623Y203D01*
X707Y203D02*
X723Y203D01*
X807Y203D02*
X823Y203D01*
X612Y202D02*
X617Y202D01*
X712Y202D02*
X717Y202D01*
X812Y202D02*
X817Y202D01*
D02*
G04 End of Mask0*
M02*