; NON-PLATED HOLES START AT T1
; THROUGH (PLATED) HOLES START AT T100
M48
INCH
T1C0.086614
T100C0.038000
T101C0.040000
T102C0.035000
T103C0.031497
T104C0.030000
T105C0.042000
%
T1
X001728Y001684
X001728Y015684
T100
X026728Y004684
X029728Y002684
X021728Y002684
X022728Y002684
X030728Y002684
X021728Y013684
X027728Y004684
X022728Y013684
X028728Y004684
X023728Y002684
X024728Y002684
X023728Y013684
X025728Y002684
X026728Y002684
X027728Y002684
X028728Y002684
T101
X030728Y005684
X029728Y011684
X033728Y009184
X031728Y005684
X033728Y010184
X032728Y005684
X030728Y011684
X031728Y011684
X033728Y007184
X032728Y011684
X031728Y014684
X028278Y006834
X029278Y006834
X033728Y011184
X033696Y014684
X033728Y008184
X021728Y005684
X023728Y005684
X025728Y005684
X027728Y005684
X033728Y006184
X022728Y005684
X024728Y005684
X026728Y005684
X028728Y005684
X029728Y005684
X027728Y011684
X025728Y011684
X023728Y011684
X021728Y011684
X028728Y011684
X026728Y011684
X024728Y011684
X022728Y011684
T102
X017776Y004734
X003728Y002684
X008728Y010684
X012728Y004684
X007728Y007684
X012728Y009684
X010728Y009684
X009728Y002684
X006728Y007684
X027728Y014684
X016728Y004684
X015728Y009684
X013728Y009684
X011728Y009684
X012728Y010684
X003728Y005684
X013728Y015684
X014728Y015684
X021728Y004684
X005728Y011684
X001728Y011684
X016728Y007684
X019728Y007684
X015728Y013684
X011728Y013684
X015728Y005684
X015728Y011684
X013728Y011684
X018728Y011684
X014728Y011684
X008728Y006684
X004728Y006684
X027728Y013684
X009728Y006684
X007728Y004684
X012728Y006684
X010728Y006684
X006728Y004684
X013728Y006684
X011728Y006684
X007728Y010684
X003728Y010684
T103
X004728Y008699
X001728Y008699
X004728Y009684
X001728Y009684
T104
X006728Y002684
X025728Y014686
X005728Y002684
X004728Y002684
X025728Y013684
T105
X024728Y009684
X027708Y009684
T00
M30
